# xmcd
# Track frame offsets:
# 150
# 10272
# 26130
# 38820
# 56880
# 68995
# 85185
# 95750
# 115375
# 126760
# 145977
# 156772
#
# Disc length: 2253 seconds
# Revision: 0
# Processed by: cddbd v1.4PL0 Copyright (c) Steve Scherf et al.
# Submitted via: VisiTrax 2.9.5.181 - For more info visit www.synapsa.com
#
DISCID=a908cb0c
DTITLE=Bob Paisley and the Southern Grass - Steeped in Tradition
DYEAR=1998
DGENRE=
TTITLE0=Please Don't, Honey, Please Don't
TTITLE1=Room Over Mine
TTITLE2=How Many Times
TTITLE3=Cheap Love Affair
TTITLE4=Rachel
TTITLE5=Does It Have To End This Way?
TTITLE6=Alcatraz Blues
TTITLE7=I Thought I Heard You Calling My Name
TTITLE8=Come Home
TTITLE9=Worried Man Blues
TTITLE10=Ole Liza Jane
TTITLE11=Two More Years
EXTD=
EXTT0=
EXTT1=
EXTT2=
EXTT3=
EXTT4=
EXTT5=
EXTT6=
EXTT7=
EXTT8=
EXTT9=
EXTT10=
EXTT11=
PLAYORDER=
